PathFileType	4	(X/Y/Z)	S01_0003_Gait_markers.trc
DataRate	CameraRate	NumFrames	NumMarkers	Units	OrigDataRate	OrigDataStartFrame	OrigNumFrames
250.000000	250.000000	4	54	mm	250.000000	196	314
Frame#	Time	HEAD_ANT			R_HEAD			L_HEAD			C7			R_BACK			L_BACK			STERNUM			R_ACROMION			R_HUM_PROX			R_HUM_ANT			R_HUM_POST			R_ELBOW_LAT			R_ELBOW_MED			R_FOREARM			R_WIRST_LAT			R_WRITS_MED			R_HAND			L_ACROMION			L_HUM_PROX			L_HUM_ANT			L_HUM_POST			L_ELBOW_LAT			L_ELBOW_MED			L_FOREARM			L_WRIST_LAT			L_WIRST_MED			L_HAND			R_ILIAC			SACRUM			L_ILIAC			R_GTROCH			R_THIGH__1			R_THIGH_2			R_THIGH_3			R_THIGH_4			R_SHANK_1			R_SHANK_2			R_SHANK_3			R_SHANK_4			R_HEEL			R_FOOT_LAT			R_FOOT_MED			L_GTROCH			L_THIGH_1			L_THIGH_2			L_THIGH_3			L_THIGH_4			L_SHANK_1			L_SHANK_2			L_SHANK_3			L_SHANK_4			L_HEEL			L_FOOT_LAT			L_FOOT_MED			
		X1	Y1	Z1	X2	Y2	Z2	X3	Y3	Z3	X4	Y4	Z4	X5	Y5	Z5	X6	Y6	Z6	X7	Y7	Z7	X8	Y8	Z8	X9	Y9	Z9	X10	Y10	Z10	X11	Y11	Z11	X12	Y12	Z12	X13	Y13	Z13	X14	Y14	Z14	X15	Y15	Z15	X16	Y16	Z16	X17	Y17	Z17	X18	Y18	Z18	X19	Y19	Z19	X20	Y20	Z20	X21	Y21	Z21	X22	Y22	Z22	X23	Y23	Z23	X24	Y24	Z24	X25	Y25	Z25	X26	Y26	Z26	X27	Y27	Z27	X28	Y28	Z28	X29	Y29	Z29	X30	Y30	Z30	X31	Y31	Z31	X32	Y32	Z32	X33	Y33	Z33	X34	Y34	Z34	X35	Y35	Z35	X36	Y36	Z36	X37	Y37	Z37	X38	Y38	Z38	X39	Y39	Z39	X40	Y40	Z40	X41	Y41	Z41	X42	Y42	Z42	X43	Y43	Z43	X44	Y44	Z44	X45	Y45	Z45	X46	Y46	Z46	X47	Y47	Z47	X48	Y48	Z48	X49	Y49	Z49	X50	Y50	Z50	X51	Y51	Z51	X52	Y52	Z52	X53	Y53	Z53	X54	Y54	Z54	

197	0.784	1301.642700195312	1743.476196289062	-351.5283813476559	1240.1142578125	1698.197875976562	-273.4933776855465	1242.821166992188	1693.771606445312	-420.2005004882809	1102.3857421875	1525.321044921875	-335.062103271484	1037.716430664062	1330.637329101562	-253.442947387695	1033.992309570312	1325.261352539062	-395.5617675781247	1282.84130859375	1367.060546875	-335.6471252441403	1194.727416992188	1482.375366210938	-164.412200927734	1179.394409179688	1321.267211914062	-68.9818344116208	1244.983520507812	1238.485595703125	-79.91993713378879	1127.150146484375	1234.511596679688	-48.02329635620089	1176.937866210938	1130.406494140625	-52.88088607788061	1144.716064453125	1125.788818359375	-129.1650390624997	1286.492065429688	952.38916015625	-64.58255767822244	1320.799072265625	887.4767456054688	-110.43302154541	1261.973999023438	862.2836303710938	-58.84605407714825	1337.228149414062	799.5167846679688	-56.78973770141584	1178.486083984375	1476.01171875	-505.096527099609	1151.330200195312	1304.626708984375	-592.2125244140622	1211.51708984375	1222.86962890625	-591.0675048828123	1089.693115234375	1227.706420898438	-611.5096435546873	1144.613037109375	1120.629272460938	-614.343811035156	1087.0810546875	1121.875732421875	-555.3341674804685	1236.458740234375	940.3815307617189	-606.0512695312498	1271.762451171875	878.6754760742189	-557.7004394531248	1215.6201171875	859.0968627929689	-612.6178588867185	1289.075927734375	799.2398071289064	-609.2755737304685	1186.54638671875	1071.653686523438	-156.0783081054685	1058.768432617188	1045.705322265625	-325.4021301269529	1176.13525390625	1074.364624023438	-501.2637939453123	1139.074951171875	922.5654907226562	-144.6789703369139	1191.44287109375	645.2920532226562	-154.7980957031249	1247.06884765625	663.1052856445312	-147.4303588867186	1256.009765625	558.6851196289062	-170.8993835449218	1190.941528320312	563.294677734375	-169.3076019287108	1073.1591796875	411.0248107910157	-154.6343841552734	1097.184448242188	356.9049987792969	-165.2177581787109	1034.109130859375	299.3186035156251	-180.188735961914	994.3787231445312	348.6678466796876	-172.1995239257812	821.843994140625	241.7611541748047	-250.2749633789062	889.9703369140625	101.0318603515625	-158.1418304443359	931.9388427734375	64.4272079467774	-244.9485931396484	1152.405517578125	961.9217529296876	-507.7336425781248	1279.122192382812	680.9964599609376	-484.3273315429686	1224.1298828125	692.4091796875001	-503.011749267578	1220.977661132812	590.8883056640626	-465.862823486328	1283.71728515625	602.7786865234376	-456.3693847656249	1254.549194335938	326.7529602050782	-443.5699768066406	1197.0576171875	306.8729248046876	-446.4525146484374	1190.446533203125	222.0338592529298	-427.0765380859374	1253.915649414062	226.6853790283204	-416.9258117675781	1140.50048828125	41.96329498291023	-347.6871337890625	1314.211669921875	20.57320022583017	-425.0477294921875	1354.102661132812	26.63901519775398	-317.5325317382812	
198	0.788	1307.166625976562	1744.2880859375	-351.7771301269527	1246.140014648438	1699.084716796875	-273.1948852539059	1248.327758789062	1694.558837890625	-420.5386352539059	1107.762451171875	1526.042846679688	-335.5769653320309	1042.652587890625	1331.2353515625	-253.9557189941403	1039.594360351562	1326.262451171875	-396.2085266113278	1288.175659179688	1367.879150390625	-335.6480407714841	1199.740356445312	1483.261108398438	-164.4523315429684	1184.367065429688	1322.119140625	-69.17294311523408	1249.736450195312	1239.407104492188	-80.11529541015598	1131.880859375	1235.567504882812	-48.27367401123019	1181.48681640625	1131.514526367188	-52.89728164672827	1149.454711914062	1126.794067382812	-129.0940093994138	1290.768676757812	953.152587890625	-64.49060058593729	1324.848999023438	888.1029663085938	-110.2929763793943	1265.946166992188	863.1004028320312	-58.57652282714825	1341.108764648438	800.1019287109375	-56.74307250976545	1183.97314453125	1477.170166015625	-505.3321533203122	1157.223388671875	1305.826293945313	-592.6895751953122	1217.494262695312	1223.931518554688	-591.5682983398435	1095.708740234375	1228.731689453125	-611.972473144531	1150.789184570312	1121.57958984375	-614.8529052734373	1093.1513671875	1122.857421875	-556.0389404296873	1243.38525390625	941.9031982421876	-605.868225097656	1278.876342773438	880.2310791015626	-557.236877441406	1223.015380859375	860.4490966796876	-612.2575683593748	1296.619873046875	800.6279296875001	-608.511047363281	1192.228881835938	1072.787475585938	-156.5450439453123	1064.0537109375	1046.734130859375	-325.9842224121091	1181.794799804688	1075.294311523438	-501.5985412597654	1144.673217773438	923.6758422851562	-144.9700012207029	1199.96923828125	646.2288818359375	-155.0497436523436	1255.528686523438	664.7197875976562	-147.514205932617	1265.480712890625	559.9730224609375	-171.0745544433593	1200.0244140625	564.21875	-169.4051971435546	1083.217651367188	411.6732482910157	-155.1983947753905	1107.612915039062	357.4776000976563	-165.4750976562499	1045.099365234375	299.3677978515626	-180.4252929687499	1004.908935546875	348.7712707519532	-172.4768524169921	833.2264404296875	239.5138549804688	-250.7337493896484	904.3035278320312	100.2284851074219	-158.17626953125	946.310546875	64.05448913574224	-245.2783813476562	1157.629760742188	962.2465209960939	-507.822326660156	1281.698486328125	680.7042846679689	-484.550567626953	1227.132202148438	692.3522338867189	-502.4125976562498	1223.01904296875	591.5972900390626	-466.181671142578	1285.78271484375	602.3216552734376	-456.7220458984374	1255.222778320312	326.8124084472657	-443.6402587890624	1197.495849609375	307.4104309082032	-446.9422912597656	1190.77099609375	222.2262420654298	-427.0001831054687	1254.253173828125	226.7232971191407	-416.9674072265624	1140.616088867188	42.2040214538575	-347.5661926269531	1314.23046875	20.59107208251963	-425.0387268066406	1354.185913085938	26.61190223693855	-317.5604553222656	
199	0.792	1312.491943359375	1745.077026367188	-351.9750671386715	1251.5732421875	1699.860961914062	-273.4801330566402	1253.62841796875	1695.41796875	-420.8980102539059	1113.05322265625	1526.997192382812	-335.819915771484	1048.3427734375	1331.76513671875	-255.576736450195	1045.095947265625	1327.195678710938	-396.814758300781	1293.673217773438	1368.781860351562	-335.6875305175778	1204.734375	1484.167236328125	-164.7411346435543	1189.19287109375	1323.07568359375	-69.30567169189423	1254.474975585938	1240.275390625	-80.25526428222629	1136.523315429688	1236.550537109375	-48.48235321044894	1185.898071289062	1132.4091796875	-52.94651794433569	1153.948608398438	1127.8427734375	-128.9826965332029	1294.92431640625	953.9633178710938	-64.45277404785135	1328.790405273438	888.5902099609375	-110.3473510742186	1269.948364257812	863.9716186523438	-58.36707305908184	1345.02978515625	800.7479858398438	-56.49061965942365	1189.520874023438	1478.16015625	-505.5981140136715	1163.10888671875	1306.8798828125	-593.0084228515622	1223.53564453125	1225.2431640625	-591.8890380859373	1101.5791015625	1229.586303710938	-612.2479248046873	1157.176879882812	1122.562377929688	-615.1461791992185	1102.511596679688	1123.094360351563	-558.361145019531	1250.326171875	943.2131958007814	-605.7391357421873	1285.968383789062	881.9400024414064	-556.8762207031248	1230.351928710938	861.8054199218751	-611.9237060546873	1304.231079101562	802.3739624023439	-608.1444702148435	1197.2099609375	1073.911743164062	-157.1579284667966	1069.300659179688	1047.752075195312	-326.5663757324216	1185.76513671875	1075.894897460938	-501.5978088378904	1150.383544921875	924.7936401367188	-145.2926025390623	1208.36083984375	647.1181030273438	-155.4456481933592	1263.897094726562	665.9937744140625	-147.7190704345702	1274.543212890625	561.4833984375	-171.5189361572264	1209.169189453125	565.52734375	-169.3534698486327	1093.2978515625	412.0769653320313	-155.760040283203	1118.026611328125	358.0893859863282	-165.9627380371093	1056.175415039062	299.4151916503907	-180.5043945312499	1015.51318359375	348.5536499023438	-173.1746063232421	844.5335083007812	237.0782775878907	-251.1337585449218	918.6604614257812	99.28880310058597	-158.6303405761718	960.8541870117188	63.67905807495123	-245.9633941650391	1162.70166015625	962.8493652343751	-507.8521728515623	1284.46533203125	680.3778076171876	-484.6406860351561	1229.623168945312	692.4277343750001	-503.1013183593748	1224.684814453125	591.7862548828126	-466.1723632812499	1287.974853515625	602.0385742187501	-456.8932800292968	1255.869995117188	326.7659912109376	-443.6084289550781	1198.567138671875	307.2797241210939	-446.2618408203124	1191.159912109375	222.506820678711	-426.5475463867187	1254.566772460938	226.8175201416016	-417.4013977050781	1140.696411132812	42.41475677490242	-347.4827880859375	1314.2421875	20.6131420135499	-425.0108642578125	1354.28662109375	26.59273910522468	-317.5790710449219	
200	0.796	1318.010009765625	1745.80078125	-352.2171936035152	1256.771118164062	1700.700317382812	-273.8142395019527	1259.189697265625	1696.173095703125	-421.069427490234	1118.366577148438	1527.780395507812	-336.0908203124997	1053.435668945312	1332.569946289062	-255.3665466308591	1050.58447265625	1328.008422851562	-397.6985168457028	1299.001586914062	1369.735229492188	-335.8290710449216	1209.828247070312	1485.152099609375	-165.1550445556637	1193.954223632812	1323.975219726562	-69.59054565429658	1259.066040039062	1241.062866210938	-80.30167388915989	1141.145263671875	1237.455322265625	-48.64964675903293	1190.429321289062	1133.370971679688	-52.95971679687475	1157.6552734375	1129.139404296875	-129.1276855468747	1299.170043945312	954.7919311523438	-64.5553741455076	1332.74951171875	889.3947143554688	-110.351364135742	1274.0078125	864.7272338867188	-58.17479324340801	1348.927856445312	801.3001708984375	-56.45660781860334	1195.108032226562	1479.152465820312	-505.664154052734	1168.941284179688	1307.841796875	-593.4002075195309	1229.342163085938	1226.45849609375	-592.2657470703123	1107.623168945312	1230.418823242188	-612.5184326171873	1163.123168945312	1123.583374023438	-615.6334838867185	1108.720458984375	1123.943115234375	-558.5822753906248	1257.447631835938	944.7349243164064	-605.5068359374998	1293.083251953125	883.5313110351564	-556.4650878906248	1237.704833984375	863.0606079101564	-611.5722656249998	1311.957153320312	804.0173950195314	-607.5217285156248	1202.450073242188	1074.995361328125	-157.7263946533201	1074.641723632812	1048.753051757812	-327.2179565429685	1191.47314453125	1076.534423828125	-501.9301757812498	1156.076782226562	925.916015625	-145.3684692382811	1216.85791015625	648.0344848632812	-155.2598571777342	1272.209594726562	667.3106689453125	-147.8790740966795	1283.218627929688	562.6905517578125	-171.4321746826171	1218.203369140625	566.4041137695312	-169.5276641845702	1103.270385742188	412.5628967285157	-156.4483337402343	1128.623291015625	358.6198730468751	-165.9846038818359	1067.177856445312	299.5616455078126	-180.7515716552734	1026.132202148438	348.0931701660157	-173.8551788330077	856.0370483398438	234.4016418457032	-251.4118041992187	932.9744873046875	98.00205993652347	-158.952651977539	976.2410278320312	63.15728378295904	-245.5899353027344	1168.020629882812	963.2357788085939	-508.0141601562498	1287.070434570312	680.0787353515626	-485.1016845703123	1232.111206054688	692.8577270507814	-504.014434814453	1227.1337890625	592.2774047851564	-466.4665222167968	1290.082275390625	601.7899780273439	-456.8356628417968	1256.562377929688	326.7261352539064	-443.5232849121093	1199.209228515625	307.3959350585939	-446.1465148925781	1191.5224609375	222.8083953857423	-426.4565734863281	1255.125854492188	226.4981231689454	-417.4530029296874	1140.792236328125	42.64169311523445	-347.3435974121094	1314.279663085938	20.58577537536631	-424.9899291992188	1354.38818359375	26.55255317687995	-317.5274658203125	
